<svg data-v-423bf9ae="" xmlns="http://www.w3.org/2000/svg" viewBox="0 0 215.0801672813234 60" class="font"><!----><!----><!----><g data-v-423bf9ae="" id="03f54dfa-1eb9-4283-bd51-349789e30e57" fill="black" transform="matrix(5.941440959899549,0,0,5.941440959899549,-4.15901008510572,-21.44464150811568)"><path d="M2.24 3.72L2.24 3.72L4.40 3.72L4.40 3.72Q5.53 3.72 6.24 4.24L6.24 4.24L6.24 4.24Q6.96 4.75 7.29 5.51L7.29 5.51L7.29 5.51Q7.62 6.27 7.57 7.16L7.57 7.16L7.57 7.16Q7.52 8.05 7.14 8.81L7.14 8.81L7.14 8.81Q6.76 9.58 6.06 10.09L6.06 10.09L6.06 10.09Q5.36 10.60 4.38 10.60L4.38 10.60L4.38 10.60Q3.64 10.60 3.24 10.35L3.24 10.35L3.24 10.35Q2.84 10.11 2.70 9.77L2.70 9.77L2.70 9.77Q2.56 9.42 2.63 9.04L2.63 9.04L2.63 9.04Q2.70 8.67 2.90 8.39L2.90 8.39L2.90 8.39Q2.97 8.54 3.16 8.62L3.16 8.62L3.16 8.62Q3.36 8.71 3.60 8.75L3.60 8.75L3.60 8.75Q3.85 8.79 4.09 8.79L4.09 8.79L4.09 8.79Q4.33 8.79 4.48 8.76L4.48 8.76L4.48 8.76Q4.86 8.69 5.13 8.43L5.13 8.43L5.13 8.43Q5.40 8.16 5.54 7.81L5.54 7.81L5.54 7.81Q5.67 7.45 5.67 7.05L5.67 7.05L5.67 7.05Q5.67 6.65 5.51 6.31L5.51 6.31L5.51 6.31Q5.35 5.98 5.00 5.76L5.00 5.76L5.00 5.76Q4.66 5.54 4.13 5.54L4.13 5.54L2.55 5.54L2.55 13.52L0.70 13.52L0.70 5.45L0.70 5.45Q0.70 4.68 1.05 4.20L1.05 4.20L1.05 4.20Q1.40 3.72 2.24 3.72ZM12.21 6.10L12.21 6.10L12.21 6.10Q13.31 6.10 14.18 6.64L14.18 6.64L14.18 6.64Q15.04 7.17 15.53 7.99L15.53 7.99L15.53 7.99Q16.02 8.82 16.05 9.83L16.05 9.83L16.05 9.83Q16.09 10.84 15.54 11.80L15.54 11.80L15.54 11.80Q15.08 12.60 14.34 13.08L14.34 13.08L14.34 13.08Q13.59 13.55 12.75 13.67L12.75 13.67L12.75 13.67Q11.91 13.79 11.07 13.53L11.07 13.53L11.07 13.53Q10.22 13.27 9.55 12.60L9.55 12.60L9.55 12.60Q8.79 11.83 8.54 10.82L8.54 10.82L8.54 10.82Q8.29 9.81 8.58 8.81L8.58 8.81L8.58 8.81Q8.71 8.40 8.99 8.13L8.99 8.13L8.99 8.13Q9.28 7.87 9.65 7.74L9.65 7.74L9.65 7.74Q10.01 7.62 10.40 7.63L10.40 7.63L10.40 7.63Q10.79 7.64 11.13 7.79L11.13 7.79L11.13 7.79Q11.47 7.94 11.70 8.21L11.70 8.21L11.70 8.21Q11.93 8.48 11.97 8.88L11.97 8.88L11.97 8.88Q11.76 8.72 11.47 8.71L11.47 8.71L11.47 8.71Q11.17 8.71 10.90 8.84L10.90 8.84L10.90 8.84Q10.63 8.97 10.44 9.25L10.44 9.25L10.44 9.25Q10.25 9.52 10.25 9.93L10.25 9.93L10.25 9.93Q10.25 10.63 10.54 11.09L10.54 11.09L10.54 11.09Q10.84 11.55 11.28 11.78L11.28 11.78L11.28 11.78Q11.72 12.01 12.23 12.01L12.23 12.01L12.23 12.01Q12.74 12.01 13.18 11.77L13.18 11.77L13.18 11.77Q13.62 11.54 13.92 11.07L13.92 11.07L13.92 11.07Q14.21 10.60 14.21 9.90L14.21 9.90L14.21 9.90Q14.21 9.35 14.01 8.93L14.01 8.93L14.01 8.93Q13.82 8.51 13.49 8.24L13.49 8.24L13.49 8.24Q13.16 7.97 12.73 7.86L12.73 7.86L12.73 7.86Q12.29 7.76 11.80 7.85L11.80 7.85L11.80 7.85Q11.59 7.60 11.29 7.46L11.29 7.46L11.29 7.46Q10.99 7.31 10.64 7.26L10.64 7.26L10.64 7.26Q10.29 7.21 9.94 7.27L9.94 7.27L9.94 7.27Q9.59 7.34 9.28 7.52L9.28 7.52L9.28 7.52Q9.84 6.85 10.58 6.48L10.58 6.48L10.58 6.48Q11.33 6.10 12.21 6.10ZM20.78 8.50L20.78 8.50L20.78 8.50Q20.66 8.23 20.47 8.07L20.47 8.07L20.47 8.07Q20.27 7.91 20.04 7.83L20.04 7.83L20.04 7.83Q19.81 7.74 19.59 7.74L19.59 7.74L19.59 7.74Q19.38 7.73 19.24 7.78L19.24 7.78L19.24 7.78Q18.98 7.87 18.91 8.07L18.91 8.07L18.91 8.07Q18.83 8.27 18.98 8.46L18.98 8.46L18.98 8.46Q19.11 8.60 19.38 8.73L19.38 8.73L19.38 8.73Q19.66 8.86 19.99 9.02L19.99 9.02L19.99 9.02Q20.33 9.18 20.69 9.39L20.69 9.39L20.69 9.39Q21.04 9.59 21.34 9.87L21.34 9.87L21.34 9.87Q21.63 10.15 21.82 10.53L21.82 10.53L21.82 10.53Q22.01 10.91 22.01 11.42L22.01 11.42L22.01 11.42Q22.01 12.03 21.74 12.48L21.74 12.48L21.74 12.48Q21.48 12.94 21.04 13.22L21.04 13.22L21.04 13.22Q20.59 13.50 20.04 13.60L20.04 13.60L20.04 13.60Q19.49 13.71 18.92 13.62L18.92 13.62L18.92 13.62Q18.35 13.54 17.82 13.24L17.82 13.24L17.82 13.24Q17.29 12.94 16.90 12.42L16.90 12.42L18.02 11.21L18.02 11.21Q18.37 11.63 18.75 11.82L18.75 11.82L18.75 11.82Q19.14 12.00 19.47 12.02L19.47 12.02L19.47 12.02Q19.80 12.04 20.02 11.92L20.02 11.92L20.02 11.92Q20.24 11.80 20.29 11.60L20.29 11.60L20.29 11.60Q20.34 11.40 20.17 11.15L20.17 11.15L20.17 11.15Q20.01 10.91 19.53 10.67L19.53 10.67L19.53 10.67Q19.08 10.44 18.66 10.21L18.66 10.21L18.66 10.21Q18.23 9.97 17.90 9.67L17.90 9.67L17.90 9.67Q17.57 9.38 17.37 9.02L17.37 9.02L17.37 9.02Q17.16 8.65 17.16 8.16L17.16 8.16L17.16 8.16Q17.16 7.66 17.37 7.27L17.37 7.27L17.37 7.27Q17.58 6.87 17.93 6.61L17.93 6.61L17.93 6.61Q18.28 6.34 18.73 6.22L18.73 6.22L18.73 6.22Q19.18 6.09 19.66 6.10L19.66 6.10L19.66 6.10Q20.47 6.15 20.90 6.46L20.90 6.46L20.90 6.46Q21.32 6.78 21.43 7.18L21.43 7.18L21.43 7.18Q21.53 7.57 21.36 7.95L21.36 7.95L21.36 7.95Q21.18 8.33 20.78 8.50ZM23.88 6.33L23.88 5.15L23.88 5.15Q23.88 4.76 24.03 4.49L24.03 4.49L24.03 4.49Q24.18 4.21 24.42 4.05L24.42 4.05L24.42 4.05Q24.67 3.88 24.99 3.80L24.99 3.80L24.99 3.80Q25.31 3.72 25.65 3.72L25.65 3.72L25.65 6.33L27.27 6.33L27.27 6.33Q27.27 6.61 27.22 6.87L27.22 6.87L27.22 6.87Q27.17 7.14 27.03 7.36L27.03 7.36L27.03 7.36Q26.89 7.57 26.66 7.71L26.66 7.71L26.66 7.71Q26.42 7.84 26.04 7.84L26.04 7.84L25.65 7.84L25.65 11.80L25.65 11.80Q25.65 12.03 25.82 12.12L25.82 12.12L25.82 12.12Q25.98 12.21 26.21 12.20L26.21 12.20L26.21 12.20Q26.43 12.19 26.66 12.10L26.66 12.10L26.66 12.10Q26.88 12.00 26.98 11.83L26.98 11.83L26.98 11.83Q27.16 12.29 27.00 12.65L27.00 12.65L27.00 12.65Q26.84 13.01 26.50 13.22L26.50 13.22L26.50 13.22Q26.15 13.44 25.70 13.50L25.70 13.50L25.70 13.50Q25.24 13.57 24.84 13.43L24.84 13.43L24.84 13.43Q24.44 13.30 24.16 12.96L24.16 12.96L24.16 12.96Q23.88 12.61 23.88 12.03L23.88 12.03L23.88 7.84L22.99 7.84L22.99 6.33L23.88 6.33ZM31.49 8.50L28.38 3.74L30.49 3.74L32.55 6.87L33.82 4.93L33.82 4.93Q34.10 4.51 34.38 4.21L34.38 4.21L34.38 4.21Q34.65 3.92 34.98 3.77L34.98 3.77L34.98 3.77Q35.31 3.61 35.73 3.61L35.73 3.61L35.73 3.61Q36.15 3.60 36.72 3.74L36.72 3.74L33.60 8.50L36.90 13.52L34.78 13.52L32.55 10.11L30.31 13.52L28.18 13.52L31.49 8.50Z"></path></g><!----><!----></svg>