<svg xmlns="http://www.w3.org/2000/svg" version="1.1" xmlns:xlink="http://www.w3.org/1999/xlink" xmlns:svgjs="http://svgjs.dev/svgjs" width="1000" height="623" viewBox="0 0 1000 623"><g transform="matrix(1,0,0,1,-0.6060606060606233,0.2522267206477409)"><svg viewBox="0 0 396 247" data-background-color="#ffffff" preserveAspectRatio="xMidYMid meet" height="623" width="1000" xmlns="http://www.w3.org/2000/svg" xmlns:xlink="http://www.w3.org/1999/xlink"><g id="tight-bounds" transform="matrix(1,0,0,1,0.2400000000000091,-0.09999999999999432)"><svg viewBox="0 0 395.52 247.2" height="247.2" width="395.52"><g><svg></svg></g><g><svg viewBox="0 0 395.52 247.2" height="247.2" width="395.52"><g transform="matrix(1,0,0,1,75.54432,90.58663133126933)"><svg viewBox="0 0 244.43135999999998 66.02673733746131" height="66.02673733746131" width="244.43135999999998"><g><svg viewBox="0 0 244.43135999999998 66.02673733746131" height="66.02673733746131" width="244.43135999999998"><g><svg viewBox="0 0 244.43135999999998 66.02673733746131" height="66.02673733746131" width="244.43135999999998"><g><svg viewBox="0 0 244.43135999999998 66.02673733746131" height="66.02673733746131" width="244.43135999999998"><g id="textblocktransform"><svg viewBox="0 0 244.43135999999998 66.02673733746131" height="66.02673733746131" width="244.43135999999998" id="textblock"><g><svg viewBox="0 0 244.43135999999998 66.02673733746131" height="66.02673733746131" width="244.43135999999998"><g transform="matrix(1,0,0,1,0,0)"><svg width="244.43135999999998" viewBox="3.950000047683716 -34.29999923706055 129.19000244140625 34.89999771118164" height="66.02673733746131" data-palette-color="#4a596d"><path d="M3.95 0L3.95-34.3 20.65-34.3Q25.8-34.3 28.55-31.45 31.3-28.6 31.3-23.85L31.3-23.85Q31.3-19 28.43-16.07 25.55-13.15 20.65-13.15L20.65-13.15 8.7-13.15 8.7 0 3.95 0ZM8.7-17.3L20.4-17.3Q23.2-17.3 24.85-19.05 26.5-20.8 26.5-23.8L26.5-23.8Q26.5-26.85 24.95-28.5 23.4-30.15 20.4-30.15L20.4-30.15 8.7-30.15 8.7-17.3ZM47.25 0.6Q41.2 0.6 38.15-2.78 35.1-6.15 35.1-13.15L35.1-13.15Q35.1-20.15 38.15-23.53 41.2-26.9 47.25-26.9L47.25-26.9Q53.3-26.9 56.35-23.53 59.4-20.15 59.4-13.15L59.4-13.15Q59.4-6.15 56.35-2.78 53.3 0.6 47.25 0.6L47.25 0.6ZM47.25-3.05Q51.25-3.05 53.05-5.38 54.85-7.7 54.85-12.95L54.85-12.95 54.85-13.35Q54.85-18.6 53.05-20.93 51.25-23.25 47.25-23.25L47.25-23.25Q43.25-23.25 41.45-20.93 39.65-18.6 39.65-13.35L39.65-13.35 39.65-12.95Q39.65-7.7 41.45-5.38 43.25-3.05 47.25-3.05L47.25-3.05ZM73.5 0.6Q69.85 0.6 67.42-0.48 65-1.55 63.85-3.3 62.7-5.05 62.7-7.1L62.7-7.1Q62.7-7.7 62.72-7.93 62.75-8.15 62.75-8.2L62.75-8.2 67.1-8.2 67.1-7.7Q67.1-5.35 68.95-4.17 70.8-3 73.75-3L73.75-3Q76.3-3 77.97-4.03 79.65-5.05 79.65-6.9L79.65-6.9Q79.65-8.35 78.7-9.28 77.75-10.2 76.35-10.73 74.95-11.25 72.55-11.85L72.55-11.85Q69.65-12.6 67.82-13.35 66-14.1 64.72-15.58 63.45-17.05 63.45-19.4L63.45-19.4Q63.45-22.85 66.27-24.88 69.1-26.9 73.9-26.9L73.9-26.9Q76.9-26.9 79.1-25.93 81.3-24.95 82.42-23.33 83.55-21.7 83.55-19.7L83.55-19.7 83.5-18.75 79.2-18.75 79.2-19.2Q79.2-20.95 77.82-22.1 76.45-23.25 73.4-23.25L73.4-23.25Q70.4-23.25 69.2-22.18 68-21.1 68-19.7L68-19.7Q68-18.55 68.85-17.8 69.7-17.05 70.95-16.6 72.2-16.15 74.45-15.6L74.45-15.6Q77.55-14.8 79.5-14.03 81.45-13.25 82.82-11.68 84.2-10.1 84.2-7.5L84.2-7.5Q84.2-3.45 81.27-1.43 78.35 0.6 73.5 0.6L73.5 0.6ZM95.44 0.55Q92.74 0.55 91.49-1.05 90.24-2.65 90.24-5L90.24-5 90.24-22.65 87.04-22.65 87.04-26.3 90.29-26.3 91.24-33.6 94.64-33.6 94.64-26.3 99.09-26.3 99.09-22.65 94.64-22.65 94.64-5.4Q94.64-3.05 96.84-3.05L96.84-3.05 99.09-3.05 99.09-0.15Q98.44 0.15 97.39 0.35 96.34 0.55 95.44 0.55L95.44 0.55ZM100.29 0L113.79-17.95 101.49-34.3 107.39-34.3 116.49-22.05 116.89-22.05 126.09-34.3 131.79-34.3 119.59-18 133.14 0 127.29 0 116.84-14.05 116.44-14.05 106.04 0 100.29 0Z" opacity="1" transform="matrix(1,0,0,1,0,0)" fill="#000000" class="undefined-text-0" data-fill-palette-color="primary" id="text-0"></path></svg></g></svg></g></svg></g></svg></g></svg></g></svg></g></svg></g><g><path d="M0 123.6c0-68.262 55.338-123.6 123.6-123.6 53.963 0 99.849 34.582 116.705 82.793l-3.16 0c-16.727-46.536-61.25-79.816-113.545-79.816-66.618 0-120.623 54.005-120.623 120.623 0 66.618 54.005 120.623 120.623 120.623 52.296 0 96.818-33.28 113.545-79.816l3.16 0c-16.856 48.211-62.742 82.793-116.705 82.793-68.262 0-123.6-55.338-123.6-123.6z" fill="#000000" stroke="transparent" data-fill-palette-color="tertiary"></path></g></svg></g><defs></defs></svg><rect width="395.52" height="247.2" fill="none" stroke="none" visibility="hidden"></rect></g></svg></g></svg>